<svg width="81" height="31" viewBox="0 0 81 31" fill="none" xmlns="http://www.w3.org/2000/svg">
<path d="M5.4 30.32C6.72 30.32 7.84 29.7467 8.76 28.6L9.28 30H11.84V15.36H5.8V19H7.52V24.32C7.52 24.9867 7.39333 25.5133 7.14 25.9C6.88667 26.2867 6.53333 26.48 6.08 26.48C5.62667 26.48 5.27333 26.2867 5.02 25.9C4.76667 25.5133 4.64 24.9867 4.64 24.32V6.64C4.64 5.2 5.12 4.48 6.08 4.48C7.04 4.48 7.52 5.2 7.52 6.64V11.16H11.84V6.64C11.7867 4.69333 11.24 3.14667 10.2 2C9.16 0.853332 7.78667 0.279999 6.08 0.279999C4.38667 0.279999 3.02 0.853332 1.98 2C0.94 3.13333 0.386667 4.68 0.32 6.64V23.96C0.266667 25.84 0.713333 27.3733 1.66 28.56C2.60667 29.7333 3.85333 30.32 5.4 30.32ZM13.8141 30H18.0141L18.8141 24H22.9741L23.7741 30H27.9741L23.5341 0.599999H18.2541L13.8141 30ZM19.4141 19.44L20.6541 10.16L20.7741 9.4H21.0141L21.1341 10.16L22.3741 19.44H19.4141ZM29.975 30H33.975V10.28H34.215L34.375 11.52L37.135 30H38.975L41.735 11.52L41.895 10.28H42.135V30H46.135V0.599999H40.855L38.295 14.04L38.095 15.6H38.015L37.815 14.04L35.255 0.599999H29.975V30ZM49.35 30H53.67V0.599999H49.35V30ZM56.8891 30H61.2091V17.2H65.2091V12.76H61.2091V5.04H67.1691V0.599999H56.8891V30ZM72.0003 30H76.3203V17.48L80.7203 0.599999H76.4803L74.3203 10L74.2003 10.28H74.1203L74.0003 10L71.8403 0.599999H67.6003L72.0003 17.48V30Z" fill="white"/>
</svg>
