<svg width="300" height="128" viewBox="0 0 300 128" fill="none" xmlns="http://www.w3.org/2000/svg">
<path d="M31.1803 78.1464L29.2611 78.709C29.2693 78.7368 29.278 78.7644 29.2874 78.7919L31.1803 78.1464ZM79.3676 90.6425L81.1195 91.6072L81.1195 91.6072L79.3676 90.6425ZM78.8507 83.3111L80.317 81.9511L80.317 81.9511L78.8507 83.3111ZM77.8759 82.6289L77.0233 84.4381L77.0233 84.4381L77.8759 82.6289ZM56.7322 72.6655L57.5847 70.8563L57.5847 70.8563L56.7322 72.6655ZM56.4373 61.7407C56.4373 60.6362 55.5418 59.7407 54.4373 59.7407C53.3327 59.7407 52.4373 60.6362 52.4373 61.7407H56.4373ZM31 62.8345C31 61.7299 30.1046 60.8344 29 60.8344C27.8954 60.8344 27 61.7299 27 62.8344L31 62.8345ZM31.1803 48.7046L29.2895 48.0529C29.28 48.0805 29.2711 48.1083 29.2628 48.1364L31.1803 48.7046ZM79.3672 36.3423L81.1146 35.3694L81.1146 35.3694L79.3672 36.3423ZM78.8512 43.5949L80.3103 44.9627L80.3103 44.9627L78.8512 43.5949ZM77.8771 44.2698L77.0321 42.457L77.0321 42.457L77.8771 44.2698ZM56.7473 54.1195L57.5923 55.9322L57.5923 55.9322L56.7473 54.1195ZM52.4373 63.4912C52.4373 64.5958 53.3327 65.4912 54.4373 65.4912C55.5418 65.4912 56.4373 64.5958 56.4373 63.4912H52.4373ZM27 63.8519C27 64.9564 27.8954 65.8519 29 65.8519C30.1046 65.8519 31 64.9564 31 63.8519L27 63.8519ZM81.0917 87.8889C79.9871 87.8889 79.0917 88.7843 79.0917 89.8889C79.0917 90.9935 79.9871 91.8889 81.0917 91.8889V87.8889ZM97.9193 87.3285L95.9994 87.8889L95.9994 87.8889L97.9193 87.3285ZM91.4869 65.2915L93.4068 64.7311L93.4068 64.7311L91.4869 65.2915ZM79.6667 61.8519C78.5621 61.8519 77.6667 62.7473 77.6667 63.8519C77.6667 64.9564 78.5621 65.8519 79.6667 65.8519V61.8519ZM75.0926 56.9259C71.4618 56.9259 68.5185 59.8692 68.5185 63.5L72.5185 63.5C72.5185 62.0784 73.671 60.9259 75.0926 60.9259L75.0926 56.9259ZM68.5185 63.5C68.5185 67.1308 71.4618 70.0741 75.0926 70.0741L75.0926 66.0741C73.671 66.0741 72.5185 64.9216 72.5185 63.5L68.5185 63.5ZM75.0926 70.0741C78.7234 70.0741 81.6667 67.1308 81.6667 63.5L77.6667 63.5C77.6667 64.9216 76.5142 66.0741 75.0926 66.0741L75.0926 70.0741ZM81.6667 63.5C81.6667 59.8692 78.7234 56.9259 75.0926 56.9259L75.0926 60.9259C76.5142 60.9259 77.6667 62.0784 77.6667 63.5L81.6667 63.5ZM29.2874 78.7919C31.0332 83.9116 37.8881 94 51.5302 94V90C40.171 90 34.4769 81.6169 33.0733 77.5009L29.2874 78.7919ZM51.5302 94H76.7623V90H51.5302V94ZM81.1195 91.6072C82.213 89.6214 83.6136 85.5052 80.317 81.9511L77.3843 84.6712C78.8717 86.2748 78.4417 88.1776 77.6156 89.6778L81.1195 91.6072ZM78.7284 80.8197L57.5847 70.8563L55.8797 74.4747L77.0233 84.4381L78.7284 80.8197ZM56.4373 69.0471V61.7407H52.4373V69.0471H56.4373ZM33.0996 77.5837C32.5416 75.6804 31.0781 69.4763 31.003 63.3217L27.0033 63.3705C27.0842 70.0054 28.6393 76.5879 29.2611 78.709L33.0996 77.5837ZM31.003 63.3217C31.001 63.1591 31 62.9966 31 62.8345L27 62.8344C27 63.0132 27.0011 63.192 27.0033 63.3705L31.003 63.3217ZM57.5847 70.8563C56.8843 70.5263 56.4373 69.8215 56.4373 69.0471H52.4373C52.4373 71.3702 53.7783 73.4845 55.8797 74.4747L57.5847 70.8563ZM80.317 81.9511C79.8181 81.4132 79.238 81.0598 78.7284 80.8197L77.0233 84.4381C77.2365 84.5385 77.3399 84.6233 77.3843 84.6712L80.317 81.9511ZM76.7623 94C78.299 94 80.147 93.3733 81.1195 91.6072L77.6156 89.6778C77.5791 89.7441 77.5185 89.812 77.3901 89.875C77.2497 89.944 77.0358 90 76.7623 90V94ZM33.0712 49.3564C34.4693 45.3003 40.1577 37 51.5302 37V33C37.9014 33 31.0408 42.9725 29.2895 48.0529L33.0712 49.3564ZM51.5302 37H76.7754V33H51.5302V37ZM77.6198 37.3152C78.4436 38.7949 78.8658 40.6549 77.392 42.2271L80.3103 44.9627C83.6197 41.4323 82.2105 37.3378 81.1146 35.3694L77.6198 37.3152ZM77.0321 42.457L55.9023 52.3068L57.5923 55.9322L78.7221 46.0825L77.0321 42.457ZM52.4373 57.7449V63.4912H56.4373V57.7449H52.4373ZM29.2628 48.1364C28.6403 50.2367 27.0843 56.7525 27.0033 63.3214L31.003 63.3707C31.078 57.2874 32.5405 51.1538 33.0979 49.2729L29.2628 48.1364ZM27.0033 63.3214C27.0011 63.4981 27 63.6749 27 63.8519L31 63.8519C31 63.6917 31.001 63.5313 31.003 63.3707L27.0033 63.3214ZM55.9023 52.3068C53.7886 53.2921 52.4373 55.4129 52.4373 57.7449H56.4373C56.4373 56.9676 56.8877 56.2606 57.5923 55.9322L55.9023 52.3068ZM77.392 42.227C77.348 42.2741 77.245 42.3578 77.0321 42.457L78.7221 46.0825C79.2303 45.8456 79.8102 45.4962 80.3103 44.9627L77.392 42.227ZM76.7754 37C77.0472 37 77.2592 37.0553 77.3981 37.123C77.525 37.1849 77.5842 37.2512 77.6198 37.3152L81.1146 35.3694C80.139 33.617 78.3005 33 76.7754 33V37ZM81.0917 91.8889H95.9994V87.8889H81.0917V91.8889ZM99.8392 86.7681L93.4068 64.7311L89.567 65.8519L95.9994 87.8889L99.8392 86.7681ZM89.567 61.8519H79.6667V65.8519H89.567V61.8519ZM93.4068 64.7311C92.9087 63.0248 91.3445 61.8519 89.567 61.8519V65.8519L89.567 65.8519L93.4068 64.7311ZM95.9994 91.8889C98.6664 91.8889 100.586 89.3283 99.8392 86.7681L95.9994 87.8889L95.9994 87.8889V91.8889Z" fill="url(#paint0_linear)"/>
<path d="M129 89.5V68C129 66.8954 128.105 66 127 66H114C112.895 66 112 66.8954 112 68V87.5C112 88.6046 112.895 89.5 114 89.5H129ZM129 89.5H134.5C135.605 89.5 136.5 88.6046 136.5 87.5V83.5" stroke="url(#paint1_linear)" stroke-width="4"/>
<path d="M150 90.5V68C150 66.8954 150.895 66 152 66H161.5M161.5 66V76.5M161.5 66H170.5C171.605 66 172.5 66.8954 172.5 68V87.5C172.5 88.6046 173.395 89.5 174.5 89.5H177.5" stroke="url(#paint2_linear)" stroke-width="4"/>
<path d="M192.5 64V88C192.5 89.1046 193.395 90 194.5 90H198" stroke="url(#paint3_linear)" stroke-width="4"/>
<path d="M192.5 59.5V55" stroke="#03EFFE" stroke-width="4"/>
<path d="M220.5 46H213.5C212.395 46 211.5 46.8954 211.5 48V62.5M211.5 62.5H220.5M211.5 62.5V92" stroke="url(#paint4_linear)" stroke-width="4"/>
<path d="M232.5 61V72C232.5 73.1046 233.395 74 234.5 74H243C244.105 74 245 73.1046 245 72V61V88.5C245 89.6046 244.105 90.5 243 90.5H238C236.895 90.5 236 89.6046 236 88.5V83" stroke="url(#paint5_linear)" stroke-width="4"/>
<defs>
<linearGradient id="paint0_linear" x1="63.5003" y1="35" x2="63.5003" y2="92" gradientUnits="userSpaceOnUse">
<stop stop-color="#01F0FF"/>
<stop offset="0.948958" stop-color="#E74C3C"/>
</linearGradient>
<linearGradient id="paint1_linear" x1="128.25" y1="64" x2="128.25" y2="89.5" gradientUnits="userSpaceOnUse">
<stop stop-color="#06ECFB"/>
<stop offset="1" stop-color="#E74C3C"/>
</linearGradient>
<linearGradient id="paint2_linear" x1="163.25" y1="66" x2="163.25" y2="90.5" gradientUnits="userSpaceOnUse">
<stop stop-color="#03EFFE"/>
<stop offset="1" stop-color="#E74C3C"/>
</linearGradient>
<linearGradient id="paint3_linear" x1="195.25" y1="64" x2="195.25" y2="90" gradientUnits="userSpaceOnUse">
<stop stop-color="#03EFFE"/>
<stop offset="1" stop-color="#E74C3C"/>
</linearGradient>
<linearGradient id="paint4_linear" x1="216" y1="46" x2="216" y2="92" gradientUnits="userSpaceOnUse">
<stop stop-color="#03EFFE"/>
<stop offset="1" stop-color="#E74C3C"/>
</linearGradient>
<linearGradient id="paint5_linear" x1="238.75" y1="61" x2="238.75" y2="90.5" gradientUnits="userSpaceOnUse">
<stop stop-color="#03EFFE"/>
<stop offset="1" stop-color="#E74C3C"/>
</linearGradient>
</defs>
</svg>
