<svg width="74" height="61" viewBox="0 0 74 61" fill="none" xmlns="http://www.w3.org/2000/svg">
<path d="M27.4373 28.7407L27.4373 36.0471C27.4373 37.5958 28.3313 39.0054 29.7322 39.6655L50.8759 49.6289C51.2372 49.7992 51.579 50.0182 51.8507 50.3111C54.2426 52.89 53.3274 55.8995 52.3676 57.6425C51.8547 58.5737 50.8255 59 49.7623 59C45.0619 59 35.5164 59 24.5302 59C12.0296 59 5.75503 49.7642 4.18034 45.1464C3.57469 43.0805 1.99999 36.3967 2 29.8345" stroke="#EFEFEF" stroke-width="4" stroke-linecap="round" stroke-linejoin="round"/>
<path d="M27.4373 30.4912L27.4373 24.7449C27.4373 23.1902 28.3381 21.7764 29.7473 21.1195L50.8771 11.2698C51.2377 11.1017 51.5791 10.8851 51.8512 10.5949C54.2428 8.04359 53.3271 5.06633 52.3672 3.3423C51.8537 2.41999 50.831 2 49.7754 2C45.0795 2 35.5266 2 24.5302 2C12.0296 2 5.75503 11.1364 4.18034 15.7046C3.57469 17.7483 1.99999 24.3602 2 30.8519" stroke="#EFEFEF" stroke-width="4" stroke-linecap="round" stroke-linejoin="round"/>
<path d="M16.7778 37.4815C19.2784 37.4815 21.4075 39.6538 21.4075 42.463C21.4075 45.2722 19.2784 47.4445 16.7778 47.4445C14.2772 47.4445 12.1482 45.2722 12.1482 42.463C12.1482 39.6538 14.2772 37.4815 16.7778 37.4815Z" stroke="#EFEFEF" stroke-width="2"/>
<path d="M48.0927 26.9259C46.1188 26.9259 44.5186 28.5261 44.5186 30.5C44.5186 32.4739 46.1188 34.0741 48.0927 34.0741C50.0666 34.0741 51.6667 32.4739 51.6667 30.5C51.6667 28.5261 50.0666 26.9259 48.0927 26.9259Z" stroke="#EFEFEF" stroke-width="2"/>
<path d="M16.481 22.5296L23.7268 22.5296L23.7268 17.6991L16.481 17.6991" stroke="#EFEFEF" stroke-width="2"/>
<path d="M14.0659 20.1144L14.0659 27.3602L18.8964 27.3602L18.8964 20.1144" stroke="#EFEFEF" stroke-width="2"/>
<path d="M14.0659 20.1144L14.0659 12.8687L18.8964 12.8687L18.8964 20.1144" stroke="#EFEFEF" stroke-width="2"/>
<path d="M21.7268 22.5296L16.481 22.5296L11.2353 22.5296C10.1307 22.5296 9.23528 21.6342 9.23528 20.5296L9.23528 19.6991C9.23528 18.5945 10.1307 17.6991 11.2353 17.6991L16.481 17.6991L21.7268 17.6991C22.8314 17.6991 23.7268 18.5945 23.7268 19.6991L23.7268 20.5296C23.7268 21.6342 22.8314 22.5296 21.7268 22.5296Z" stroke="#EFEFEF" stroke-width="2" stroke-linejoin="round"/>
<path d="M14.0659 25.3602L14.0659 20.1144L14.0659 14.8686C14.0659 13.7641 14.9613 12.8686 16.0659 12.8686L16.8964 12.8686C18.001 12.8686 18.8964 13.7641 18.8964 14.8686L18.8964 20.1144L18.8964 25.3602C18.8964 26.4647 18.001 27.3602 16.8964 27.3602L16.0659 27.3602C14.9613 27.3602 14.0659 26.4647 14.0659 25.3602Z" stroke="#EFEFEF" stroke-width="2" stroke-linejoin="round"/>
<path d="M54.0917 56.8889L68.9995 56.8889C70.333 56.8889 71.293 55.6086 70.9194 54.3285L64.487 32.2915C64.2379 31.4383 63.4558 30.8518 62.5671 30.8518L52.6667 30.8518" stroke="#EFEFEF" stroke-width="4" stroke-linecap="round"/>
</svg>
